<svg t="1633678382572" class="icon" viewBox="0 0 1024 1024" version="1.1" xmlns="http://www.w3.org/2000/svg" p-id="3375" width="200" height="200"><path d="M776.704 496.896a143.9488 143.9488 0 0 0 41.216-105.984c-2.56-75.264-66.304-137.728-141.568-138.752a143.872 143.872 0 0 0-146.176 143.872c0 39.168 15.616 74.496 40.96 100.352 14.848 15.104 12.544 40.192-6.144 50.176a238.592 238.592 0 0 0-127.488 211.2v0.512c0 20.736 16.896 37.376 37.632 37.376h401.664c20.992 0 37.888-16.896 37.888-37.888 0-92.672-52.736-172.8-129.792-212.48-18.176-9.216-22.272-34.048-8.192-48.384z" fill="#FFFFFF" p-id="3376"></path><path d="M674.048 251.904h2.304c75.264 1.28 138.752 63.744 141.568 138.752 1.536 41.216-14.592 78.848-41.216 105.984-14.08 14.336-9.984 39.168 7.936 48.384a238.464 238.464 0 0 1 129.792 212.48c0 20.992-16.896 37.888-37.888 37.888H474.88c-20.736 0-37.376-16.896-37.632-37.376v-0.512a238.592 238.592 0 0 1 127.488-211.2c18.688-9.728 20.736-35.072 6.144-50.176-25.344-25.856-40.96-61.44-40.96-100.352 0.256-79.36 64.512-143.872 144.128-143.872m0-51.2c-107.52 0-195.072 87.552-195.072 195.072 0 43.264 14.08 84.48 39.936 118.272a288.9984 288.9984 0 0 0-132.608 243.456c0 49.408 39.936 89.088 88.832 89.088h401.664c49.152 0 89.088-39.936 89.088-89.088 0-100.608-51.2-192.256-135.168-245.248a194.0224 194.0224 0 0 0 38.4-123.392c-3.584-102.144-89.6-186.624-191.744-188.16h-3.328z" fill="#444444" p-id="3377" data-spm-anchor-id="a313x.7781069.0.i9" class="selected"></path><path d="M568.32 470.784a191.5904 191.5904 0 0 0 55.04-141.312c-3.328-100.352-88.32-183.552-188.672-185.344-107.52-1.792-195.072 84.992-195.072 192 0 52.224 20.736 99.328 54.528 133.888 19.712 20.224 16.896 53.76-8.192 66.816a318.4128 318.4128 0 0 0-170.24 281.856V819.2c0 27.392 22.528 49.92 49.92 49.92h536.064c27.904 0 50.432-22.528 50.688-50.432 0-123.648-70.4-230.656-173.312-283.392-24.064-12.288-29.696-45.312-10.752-64.512z" fill="#FFFFFF" p-id="3378"></path><path d="M431.36 144.128h3.072c100.352 1.536 185.344 84.992 188.672 185.344 1.792 55.04-19.456 105.216-55.04 141.312-18.944 19.2-13.312 52.224 10.752 64.512 102.912 52.736 173.312 159.744 173.312 283.392 0 27.904-22.528 50.432-50.688 50.432H165.632c-27.392 0-49.92-22.528-49.92-49.92v-0.512c0-122.368 69.12-228.608 170.24-281.856 24.832-13.056 27.648-46.592 8.192-66.816a191.0528 191.0528 0 0 1-54.528-133.888c-0.256-105.984 85.76-192 191.744-192m0-51.2c-134.144 0-243.2 109.056-243.2 243.2 0 60.16 21.76 117.248 61.952 162.048a368.2304 368.2304 0 0 0-185.6 320.512c0 56.32 45.568 101.632 101.12 101.632h536.064c56.064 0 101.632-45.568 101.888-101.632 0-134.656-71.936-257.024-188.928-322.56a240.0512 240.0512 0 0 0 59.904-168.704c-4.608-126.976-111.872-232.448-239.36-234.496h-3.84z" fill="#444444" p-id="3379" data-spm-anchor-id="a313x.7781069.0.i7" class="selected"></path></svg>